<?xml version="1.0" encoding="utf-8"?>
<!-- Generator: Adobe Illustrator 16.0.0, SVG Export Plug-In . SVG Version: 6.00 Build 0)  -->
<!DOCTYPE svg PUBLIC "-//W3C//DTD SVG 1.1//EN" "http://www.w3.org/Graphics/SVG/1.1/DTD/svg11.dtd">
<svg version="1.1" id="Layer_1" xmlns="http://www.w3.org/2000/svg" xmlns:xlink="http://www.w3.org/1999/xlink" x="0px" y="0px"
	 width="1000px" height="1000px" viewBox="0 0 1000 1000" enable-background="new 0 0 1000 1000" xml:space="preserve">
<g id="XMLID_9273_">
	<g id="XMLID_9907_">
		<g id="XMLID_9908_">
			<rect id="XMLID_9934_" x="0.011" fill="#FFFFFF" width="999.978" height="1000"/>
		</g>
	</g>
	<g id="XMLID_9278_">
		<polygon id="XMLID_9481_" fill="#FFCE00" points="888.917,666.674 777.712,666.674 777.779,222.232 777.712,222.232 
			777.712,222.165 444.476,222.232 444.476,333.304 666.641,333.304 666.641,777.835 888.917,777.768 888.917,888.906 
			555.547,888.906 555.547,444.464 444.476,444.464 444.476,555.535 333.27,555.535 333.27,222.232 222.176,222.232 
			222.176,777.835 333.27,777.835 333.27,666.629 444.476,666.629 444.476,888.906 111.104,888.906 111.104,555.535 0.011,555.535 
			0.011,1000 0.011,1000 0.011,1000 999.989,1000 999.989,1000 999.989,555.535 888.917,555.535 		"/>
		<polygon id="XMLID_9279_" fill="#FFCE00" points="0.011,0 0.011,0 0.011,444.464 111.104,444.464 111.104,111.094 
			888.917,111.094 888.917,444.464 999.989,444.464 999.989,0 		"/>
	</g>
</g>
</svg>
