<?xml version="1.0" encoding="utf-8"?>
<!-- Generator: Adobe Illustrator 16.0.0, SVG Export Plug-In . SVG Version: 6.00 Build 0)  -->
<!DOCTYPE svg PUBLIC "-//W3C//DTD SVG 1.1//EN" "http://www.w3.org/Graphics/SVG/1.1/DTD/svg11.dtd">
<svg version="1.1" id="Layer_1" xmlns="http://www.w3.org/2000/svg" xmlns:xlink="http://www.w3.org/1999/xlink" x="0px" y="0px"
	 width="1000px" height="1000px" viewBox="0 0 1000 1000" enable-background="new 0 0 1000 1000" xml:space="preserve">
<g id="XMLID_3129_">
	<rect id="XMLID_3174_" fill="#2B388F" width="1000" height="1000"/>
	<polygon id="XMLID_3130_" fill="#FFFFFF" points="262.019,208.456 262.019,320.244 602.849,320.244 205.915,717.172 
		284.969,796.21 682.167,399.007 682.167,740.392 793.955,740.392 793.955,208.456 	"/>
</g>
<g id="XMLID_2855_">
	<g id="XMLID_2856_">
		<defs>
			<rect id="XMLID_2857_" x="1037.008" y="-1037.002" width="1000" height="999.989"/>
		</defs>
		<clipPath id="XMLID_5_">
			<use xlink:href="#XMLID_2857_"  overflow="visible"/>
		</clipPath>
		<g id="XMLID_2858_" clip-path="url(#XMLID_5_)">
			<polygon id="XMLID_2863_" fill="#156345" points="1669.31,-537.01 924.125,-1282.185 832.56,-1190.61 1486.18,-537.01 
				832.56,116.609 924.125,208.174 1669.31,-537 1669.289,-537.01 			"/>
			<polygon id="XMLID_2862_" fill="#156345" points="1307.639,-537.01 562.475,-1282.185 470.899,-1190.61 1124.509,-537.01 
				470.899,116.609 562.475,208.174 1307.639,-537 1307.639,-537.01 			"/>
		</g>
	</g>
</g>
</svg>
