<?xml version="1.0" encoding="utf-8"?>
<!-- Generator: Adobe Illustrator 16.0.0, SVG Export Plug-In . SVG Version: 6.00 Build 0)  -->
<!DOCTYPE svg PUBLIC "-//W3C//DTD SVG 1.1//EN" "http://www.w3.org/Graphics/SVG/1.1/DTD/svg11.dtd">
<svg version="1.1" id="Layer_1" xmlns="http://www.w3.org/2000/svg" xmlns:xlink="http://www.w3.org/1999/xlink" x="0px" y="0px"
	 width="1000px" height="1000px" viewBox="0 0 1000 1000" enable-background="new 0 0 1000 1000" xml:space="preserve">
<rect y="-0.899" fill="#FFFFFF" width="1000" height="1000"/>
<g id="XMLID_975_">
	<path id="XMLID_996_" fill="#2C41FF" d="M366.9-0.004V166.38v156.48v0.145c0.063-0.054,0.136-0.091,0.199-0.145h82.767v-36.142
		V-0.004H366.9z"/>
	<path id="XMLID_994_" fill="#2C41FF" d="M550.134-0.004V166.38v120.375v36.105h82.676c0.072,0.054,0.136,0.091,0.199,0.145v-0.145
		h0.118V166.38h-0.118V-0.004H550.134z"/>
	<path id="XMLID_992_" fill="#2C41FF" d="M449.866,742.325C345.1,719.384,266.624,626.169,266.624,514.521V-0.004H0v1000.009
		h449.866V742.325z"/>
	<path id="XMLID_982_" fill="#2C41FF" d="M733.285-0.004v514.525c0,111.629-78.431,204.808-183.151,227.785v257.698H1000V-0.004
		H733.285z"/>
</g>
</svg>
