<?xml version="1.0" encoding="utf-8"?>
<!-- Generator: Adobe Illustrator 16.0.0, SVG Export Plug-In . SVG Version: 6.00 Build 0)  -->
<!DOCTYPE svg PUBLIC "-//W3C//DTD SVG 1.1//EN" "http://www.w3.org/Graphics/SVG/1.1/DTD/svg11.dtd">
<svg version="1.1" id="Layer_1" xmlns="http://www.w3.org/2000/svg" xmlns:xlink="http://www.w3.org/1999/xlink" x="0px" y="0px"
	 width="1000px" height="1000px" viewBox="0 0 1000 1000" enable-background="new 0 0 1000 1000" xml:space="preserve">
<g id="XMLID_699_">
	<rect id="XMLID_1020_" x="0.005" fill="#DDDDDD" width="999.989" height="1000"/>
	<path id="XMLID_1300_" fill="#00AD62" d="M999.995,216.389c-19.386-8.775-36.853-19.23-55.253-30.246
		c-54.974-33.025-117.28-70.408-236.78-70.408c-119.479,0-181.817,37.383-236.78,70.408
		c-48.678,29.167-90.707,54.372-179.204,54.372c-88.477,0-130.505-25.205-179.152-54.372c-31.884-19.147-66.3-39.727-112.82-53.646
		v119.364c19.344,8.734,36.812,19.189,55.191,30.246c54.994,32.964,117.301,70.366,236.78,70.366
		c119.51,0,181.817-37.402,236.78-70.366c48.678-29.229,90.707-54.434,179.204-54.434s130.526,25.204,179.203,54.434
		c31.875,19.106,66.3,39.685,112.831,53.625V216.389z"/>
	<path id="XMLID_1190_" fill="#00AD62" d="M999.995,482.253c-19.386-8.755-36.853-19.188-55.253-30.246
		c-54.974-32.983-117.28-70.366-236.78-70.366c-119.479,0-181.817,37.383-236.78,70.366
		c-48.678,29.229-90.707,54.435-179.204,54.435c-88.477,0-130.505-25.205-179.152-54.435c-31.884-19.126-66.3-39.664-112.82-53.625
		v119.365c19.344,8.733,36.812,19.21,55.191,30.226c54.994,33.025,117.301,70.407,236.78,70.407
		c119.51,0,181.817-37.382,236.78-70.407c48.678-29.188,90.707-54.394,179.204-54.394s130.526,25.205,179.203,54.394
		c31.875,19.146,66.3,39.705,112.831,53.646V482.253z"/>
	<path id="XMLID_1227_" fill="#00AD62" d="M999.995,748.159c-19.386-8.733-36.853-19.169-55.253-30.246
		c-54.974-32.964-117.28-70.366-236.78-70.366c-119.479,0-181.817,37.402-236.78,70.366
		c-48.678,29.229-90.707,54.435-179.204,54.435c-88.477,0-130.505-25.205-179.152-54.435c-31.884-19.106-66.3-39.664-112.82-53.625
		v119.365c19.344,8.754,36.812,19.21,55.191,30.225c54.994,33.026,117.301,70.408,236.78,70.408
		c119.51,0,181.817-37.382,236.78-70.408c48.678-29.167,90.707-54.372,179.204-54.372s130.526,25.205,179.203,54.372
		c31.875,19.147,66.3,39.727,112.831,53.667V748.159z"/>
</g>
</svg>
