<?xml version="1.0" encoding="utf-8"?>
<!-- Generator: Adobe Illustrator 16.0.0, SVG Export Plug-In . SVG Version: 6.00 Build 0)  -->
<!DOCTYPE svg PUBLIC "-//W3C//DTD SVG 1.1//EN" "http://www.w3.org/Graphics/SVG/1.1/DTD/svg11.dtd">
<svg version="1.1" id="Layer_1" xmlns="http://www.w3.org/2000/svg" xmlns:xlink="http://www.w3.org/1999/xlink" x="0px" y="0px"
	 width="1000px" height="1000px" viewBox="0 0 1000 1000" enable-background="new 0 0 1000 1000" xml:space="preserve">
<g id="XMLID_3664_">
	<rect id="XMLID_3668_" x="-0.004" fill="#DDDDDD" width="1000.008" height="1000"/>
	<g id="XMLID_3665_">
		<path id="XMLID_3666_" fill="#FF5000" d="M540.4,503.59c24.347,18.676,45.985,30.423,64.903,35.217
			c18.945,4.801,51.672,7.989,98.187,9.595c34.083,1.068,62.222,9.455,84.391,25.201c22.184,15.714,33.268,38.786,33.268,69.179
			c0,19.198-7.561,36.807-22.69,52.81c-15.126,15.972-35.38,23.984-60.779,23.984c-30.798,0-62.008-23.61-93.611-70.784
			c-31.612-47.205-70.376-85.992-116.314-116.384l-12.159,7.179c-1.053,6.407-1.855,11.895-2.397,16.408
			c-0.522,4.536-0.795,9.735-0.795,15.597c0,26.666,11.595,61.197,34.796,103.601c23.197,42.381,34.792,74.495,34.792,96.359
			c0,21.35-7.21,40.938-21.653,58.812c-14.429,17.865-34.142,26.775-59.136,26.775c-34.569,0-58.453-12.238-71.677-36.776
			c-6.595-12.807-9.903-28.81-9.903-48.008c0-19.705,10.176-50.245,30.548-91.589c20.376-41.312,32.313-87.831,35.833-139.565
			l-9.596-5.604c-39.991,11.887-77.056,45.521-111.185,100.903c-34.118,55.374-69.857,83.077-107.19,83.077
			c-22.912,0-41.846-7.701-56.784-23.111c-14.928-15.388-22.395-33.993-22.395-55.812c0-48.85,31.187-77.285,93.588-85.251
			c95.451-12.223,156.503-26.284,183.165-42.24v-12.76c-23.458-20.188-75.445-35.856-155.974-47.011
			c-80.516-11.162-120.779-40.914-120.779-89.273c0-22.838,7.467-41.959,22.395-57.369c14.938-15.41,34.129-23.111,57.587-23.111
			c34.676,0,67.589,23.229,98.788,69.7c31.19,46.465,68.122,84.543,110.783,114.279l15.199-8.013
			c0-52.778-10.659-99.173-32.005-139.168c-21.308-39.995-31.979-69.327-31.979-87.995c0-29.854,8.13-52.265,24.394-67.176
			c16.271-14.942,34.531-22.41,54.786-22.41c21.864,0,41.199,6.548,57.993,19.597c16.794,13.071,25.196,34.273,25.196,63.605
			c0,25.052-11.595,57.175-34.792,96.366c-23.201,39.208-34.796,84.402-34.796,135.599l11.193,5.581
			c40.537-13.852,82.126-54.914,124.775-123.174c24.004-37.866,55.202-56.792,93.6-56.792c22.383,0,41.188,8.27,56.383,24.787
			c15.2,16.548,22.796,34.133,22.796,52.81c0,46.371-28.798,74.378-86.389,83.974c-101.306,16.548-166.092,31.459-194.359,44.796
			V503.59z"/>
	</g>
</g>
</svg>
