<?xml version="1.0" encoding="utf-8"?>
<!-- Generator: Adobe Illustrator 16.0.0, SVG Export Plug-In . SVG Version: 6.00 Build 0)  -->
<!DOCTYPE svg PUBLIC "-//W3C//DTD SVG 1.1//EN" "http://www.w3.org/Graphics/SVG/1.1/DTD/svg11.dtd">
<svg version="1.1" id="Layer_1" xmlns="http://www.w3.org/2000/svg" xmlns:xlink="http://www.w3.org/1999/xlink" x="0px" y="0px"
	 width="1000px" height="1000px" viewBox="0 0 1000 1000" enable-background="new 0 0 1000 1000" xml:space="preserve">
<rect y="-0.899" fill="#FFFFFF" width="1000" height="1000"/>
<g id="XMLID_542_">
	<path id="XMLID_548_" d="M500.016,0C223.849,0-0.005,223.844-0.005,499.979C-0.005,776.136,223.849,1000,500.016,1000
		c276.136,0,499.989-223.864,499.989-500.021C1000.005,223.844,776.151,0,500.016,0z M500.016,565.072
		c-35.944,0-65.094-29.148-65.094-65.093c0-35.925,29.149-65.052,65.094-65.052c35.935,0,65.062,29.127,65.062,65.052
		C565.078,535.924,535.95,565.072,500.016,565.072z"/>
	<path id="XMLID_543_" fill="#FF5000" d="M500.016,265.481c-129.529,0-234.508,105-234.508,234.498
		c0,129.539,104.979,234.519,234.508,234.519c129.498,0,234.498-104.979,234.498-234.519
		C734.514,370.481,629.514,265.481,500.016,265.481z M500.016,565.072c-35.944,0-65.094-29.148-65.094-65.093
		c0-35.925,29.149-65.052,65.094-65.052c35.935,0,65.062,29.127,65.062,65.052C565.078,535.924,535.95,565.072,500.016,565.072z"/>
</g>
</svg>
