<?xml version="1.0" encoding="utf-8"?>
<!-- Generator: Adobe Illustrator 16.0.0, SVG Export Plug-In . SVG Version: 6.00 Build 0)  -->
<!DOCTYPE svg PUBLIC "-//W3C//DTD SVG 1.1//EN" "http://www.w3.org/Graphics/SVG/1.1/DTD/svg11.dtd">
<svg version="1.1" id="Layer_1" xmlns="http://www.w3.org/2000/svg" xmlns:xlink="http://www.w3.org/1999/xlink" x="0px" y="0px"
	 width="1000px" height="1000px" viewBox="0 0 1000 1000" enable-background="new 0 0 1000 1000" xml:space="preserve">
<rect y="-0.899" fill="#FFFFFF" width="1000" height="1000"/>
<g id="XMLID_616_">
	<path id="XMLID_692_" d="M999.957,506.307c-3.48,276.105-230.142,497.135-506.242,493.653
		C217.578,996.479-3.434,769.806,0.043,493.7C3.528,217.576,230.18-3.439,506.317,0.041
		C782.428,3.522,1003.438,230.183,999.957,506.307z"/>
	<g id="XMLID_626_">
		<path id="XMLID_677_" fill="#FF5000" d="M287.822,446.935l162.437,2.046L455.89,1.925
			C340.694,12.01,236.559,61.287,156.947,136.426C230.597,221.161,278.34,328.819,287.822,446.935z"/>
		<path id="XMLID_664_" fill="#FF5000" d="M852.139,145.189C774.451,68.068,671.56,16.179,556.645,3.196l-5.631,447.057
			l162.454,2.046C725.93,334.465,776.379,228.042,852.139,145.189z"/>
		<path id="XMLID_639_" fill="#FF5000" d="M549.737,551.008l-5.632,447.056c115.205-10.085,219.368-59.367,298.979-134.506
			C769.436,778.841,721.684,671.169,712.2,553.054L549.737,551.008z"/>
		<path id="XMLID_638_" fill="#FF5000" d="M147.894,854.794c77.688,77.121,180.552,129.016,295.457,141.998l5.632-447.057
			l-162.432-2.046C274.094,665.523,223.652,771.96,147.894,854.794z"/>
		<path id="XMLID_633_" fill="#FF5000" d="M997.789,455.884c-7.479-85.134-36.041-164.333-80.919-231.975
			c-54.348,63.437-90.684,142.6-101.792,229.671L997.789,455.884z"/>
		<path id="XMLID_630_" fill="#FF5000" d="M909.776,786.495c46.575-66.465,77.121-144.922,86.736-229.856l-182.706-2.304
			C822.719,641.659,857.045,721.709,909.776,786.495z"/>
		<path id="XMLID_629_" fill="#FF5000" d="M2.243,544.104c7.45,85.151,36.032,164.351,80.91,231.971
			c54.324-63.438,90.66-142.596,101.773-229.667L2.243,544.104z"/>
		<path id="XMLID_627_" fill="#FF5000" d="M90.242,213.488C43.671,279.977,13.107,358.434,3.515,443.35l182.684,2.304
			C177.281,358.329,142.955,278.274,90.242,213.488z"/>
	</g>
</g>
</svg>
