<?xml version="1.0" encoding="utf-8"?>
<!-- Generator: Adobe Illustrator 16.0.0, SVG Export Plug-In . SVG Version: 6.00 Build 0)  -->
<!DOCTYPE svg PUBLIC "-//W3C//DTD SVG 1.1//EN" "http://www.w3.org/Graphics/SVG/1.1/DTD/svg11.dtd">
<svg version="1.1" id="Layer_1" xmlns="http://www.w3.org/2000/svg" xmlns:xlink="http://www.w3.org/1999/xlink" x="0px" y="0px"
	 width="1000px" height="1000px" viewBox="0 0 1000 1000" enable-background="new 0 0 1000 1000" xml:space="preserve">
<rect y="-0.899" fill="#FFFFFF" width="1000" height="1000"/>
<g id="XMLID_1544_">
	<path id="XMLID_1547_" fill="#FFCE00" d="M496.092,811.223c-106.939-1.344-205.504,35.816-282.594,98.552
		c79.457,55.651,175.881,88.868,280.186,90.181c104.35,1.317,201.564-29.459,282.395-83.088
		C700.6,852.208,603.004,812.572,496.092,811.223z"/>
	<path id="XMLID_1546_" fill="#FFCE00" d="M223.918,83.138c75.488,64.655,173.078,104.296,280.018,105.64
		c106.912,1.35,205.473-35.815,282.562-98.547C707.045,34.575,610.635,1.362,506.285,0.045
		C401.98-1.268,304.752,29.505,223.918,83.138z"/>
	<path id="XMLID_1545_" fill="#FFCE00" d="M502.664,289.516c-137.789-1.734-262.984-55.23-357.475-141.637
		C56.982,236.766,1.742,358.588,0.041,493.711c-1.707,135.1,50.441,258.28,136.385,349.357
		c96.637-83.997,223.145-134.316,360.934-132.582c137.783,1.737,262.961,55.229,357.447,141.641
		c88.211-88.887,143.447-210.71,145.152-345.81c1.703-135.122-50.445-258.304-136.389-349.381
		C766.934,240.93,640.447,291.254,502.664,289.516z"/>
</g>
</svg>
