<?xml version="1.0" encoding="utf-8"?>
<!-- Generator: Adobe Illustrator 16.0.0, SVG Export Plug-In . SVG Version: 6.00 Build 0)  -->
<!DOCTYPE svg PUBLIC "-//W3C//DTD SVG 1.1//EN" "http://www.w3.org/Graphics/SVG/1.1/DTD/svg11.dtd">
<svg version="1.1" id="Layer_1" xmlns="http://www.w3.org/2000/svg" xmlns:xlink="http://www.w3.org/1999/xlink" x="0px" y="0px"
	 width="1000px" height="1000px" viewBox="0 0 1000 1000" enable-background="new 0 0 1000 1000" xml:space="preserve">
<g id="XMLID_938_">
	<rect id="XMLID_973_" y="-0.014" fill="#FFCE00" width="1000" height="1000.027"/>
	<path id="XMLID_972_" fill="#FF5000" d="M1000-0.014H615.346h-7.297H499.986H391.97h-7.315H0v382.545h0.063
		c0,0.725-0.063,1.431-0.063,2.137v115.341h115.35c108.597,0,206.619-45.086,276.574-117.478h0.046v-0.036
		c66.842-69.204,108.017-163.343,108.017-267.15c0,103.808,41.202,197.946,108.062,267.15v0.036h0.018
		c69.965,72.392,167.987,117.478,276.602,117.478H1000V384.668c0-0.706-0.045-1.412-0.045-2.137H1000V-0.014z"/>
	<path id="XMLID_940_" fill="#FF5000" d="M0,999.995h384.654h7.315h108.044h108.035h7.297H1000V617.486h-0.045
		c0-0.724,0.045-1.431,0.045-2.154V500.009H884.668c-108.614,0-206.637,45.086-276.574,117.478h-0.045v0.036
		c-66.86,69.205-108.035,163.343-108.035,267.15c0-103.808-41.202-197.945-108.044-267.15v-0.036h-0.046
		c-69.955-72.392-167.978-117.478-276.574-117.478H0v115.323c0,0.724,0.063,1.431,0.063,2.154H0V999.995z"/>
</g>
</svg>
