<?xml version="1.0" encoding="utf-8"?>
<!-- Generator: Adobe Illustrator 16.0.0, SVG Export Plug-In . SVG Version: 6.00 Build 0)  -->
<!DOCTYPE svg PUBLIC "-//W3C//DTD SVG 1.1//EN" "http://www.w3.org/Graphics/SVG/1.1/DTD/svg11.dtd">
<svg version="1.1" id="Layer_1" xmlns="http://www.w3.org/2000/svg" xmlns:xlink="http://www.w3.org/1999/xlink" x="0px" y="0px"
	 width="1000px" height="1000px" viewBox="0 0 1000 1000" enable-background="new 0 0 1000 1000" xml:space="preserve">
<g id="XMLID_1513_">
	<rect id="XMLID_1530_" x="0.005" fill="#DDDDDD" width="999.989" height="1000"/>
	<path id="XMLID_1527_" d="M435.252,500c0,35.764,29,64.743,64.764,64.743c35.753,0,64.732-28.979,64.732-64.743
		c0-35.742-28.979-64.743-64.732-64.743C464.252,435.257,435.252,464.258,435.252,500z"/>
	<g id="XMLID_1514_">
		<path id="XMLID_1526_" d="M233.908,287.371c0,35.763,28.969,64.764,64.732,64.764c35.784,0,64.764-29.001,64.764-64.764
			c0-35.764-28.979-64.764-64.764-64.764C262.877,222.607,233.908,251.607,233.908,287.371z"/>
		<path id="XMLID_1524_" d="M636.606,287.371c0,35.763,29,64.764,64.753,64.764c35.763,0,64.743-29.001,64.743-64.764
			c0-35.764-28.979-64.764-64.743-64.764C665.607,222.607,636.606,251.607,636.606,287.371z"/>
		<path id="XMLID_1522_" d="M233.908,712.629c0,35.764,28.969,64.743,64.732,64.743c35.784,0,64.764-28.979,64.764-64.743
			c0-35.763-28.979-64.742-64.764-64.742C262.877,647.887,233.908,676.866,233.908,712.629z"/>
		<path id="XMLID_1515_" d="M636.606,712.629c0,35.764,29,64.743,64.753,64.743c35.763,0,64.743-28.979,64.743-64.743
			c0-35.763-28.979-64.742-64.743-64.742C665.607,647.887,636.606,676.866,636.606,712.629z"/>
	</g>
</g>
</svg>
