<?xml version="1.0" encoding="utf-8"?>
<!-- Generator: Adobe Illustrator 16.0.0, SVG Export Plug-In . SVG Version: 6.00 Build 0)  -->
<!DOCTYPE svg PUBLIC "-//W3C//DTD SVG 1.1//EN" "http://www.w3.org/Graphics/SVG/1.1/DTD/svg11.dtd">
<svg version="1.1" id="Layer_1" xmlns="http://www.w3.org/2000/svg" xmlns:xlink="http://www.w3.org/1999/xlink" x="0px" y="0px"
	 width="1000px" height="1000px" viewBox="0 0 1000 1000" enable-background="new 0 0 1000 1000" xml:space="preserve">
<g id="XMLID_5980_">
	<rect id="XMLID_2773_" x="0.072" y="-0.253" fill="#FFFFFF" width="999.855" height="999.837"/>
	<polygon id="XMLID_5984_" fill="#2C41FF" points="800.013,200.268 800.013,400.264 800.013,600.26 800.013,800.274 
		800.013,1000.253 1000,1000.253 1000,800.274 1000,600.26 1000,400.264 1000,200.268 	"/>
	<polygon id="XMLID_5983_" fill="#00AD62" points="600.008,600.26 600.008,800.274 399.993,800.274 200.015,800.274 
		200.015,1000.253 399.993,1000.253 600.008,1000.253 800.013,1000.253 800.013,800.274 800.013,600.26 	"/>
	<polygon id="XMLID_5982_" fill="#FFCE00" points="400.02,600.26 400.02,400.264 200.015,400.264 200.015,200.268 200.015,0.271 
		400.02,0.271 400.02,200.268 600.008,200.268 600.008,400.264 600.008,600.26 	"/>
	<polygon id="XMLID_5981_" fill="#FE5101" points="200.015,600.26 200.015,400.264 0,400.264 0,600.26 0,800.274 0,1000.253 
		200.015,1000.253 200.015,800.274 399.993,800.274 399.993,600.26 	"/>
</g>
</svg>
