<?xml version="1.0" encoding="utf-8"?>
<!-- Generator: Adobe Illustrator 16.0.0, SVG Export Plug-In . SVG Version: 6.00 Build 0)  -->
<!DOCTYPE svg PUBLIC "-//W3C//DTD SVG 1.1//EN" "http://www.w3.org/Graphics/SVG/1.1/DTD/svg11.dtd">
<svg version="1.1" id="Layer_1" xmlns="http://www.w3.org/2000/svg" xmlns:xlink="http://www.w3.org/1999/xlink" x="0px" y="0px"
	 width="1000px" height="1000px" viewBox="0 0 1000 1000" enable-background="new 0 0 1000 1000" xml:space="preserve">
<g id="XMLID_5847_">
	<rect id="XMLID_6782_" x="0.813" fill="#FFFFFF" width="998.374" height="998.352"/>
	<path id="XMLID_5848_" fill="#FE5101" d="M948.853,401.692l-0.267-0.089c74.165-97.84,66.882-237.729-22.383-326.993
		c-97.505-97.506-255.568-97.506-353.074,0c-48.752,48.753-73.118,112.65-73.118,176.548h-0.022
		c0-63.897-24.365-127.795-73.118-176.548c-97.506-97.506-255.568-97.506-353.074,0c-89.265,89.265-96.548,229.153-22.383,326.993
		l-0.289,0.089l4.788,6.036c0.423,0.512,0.824,1.024,1.225,1.536L499.989,1000L942.75,409.376c0.512-0.623,0.98-1.247,1.492-1.849
		L948.853,401.692z"/>
</g>
</svg>
