<?xml version="1.0" encoding="utf-8"?>
<!-- Generator: Adobe Illustrator 16.0.0, SVG Export Plug-In . SVG Version: 6.00 Build 0)  -->
<!DOCTYPE svg PUBLIC "-//W3C//DTD SVG 1.1//EN" "http://www.w3.org/Graphics/SVG/1.1/DTD/svg11.dtd">
<svg version="1.1" id="Layer_1" xmlns="http://www.w3.org/2000/svg" xmlns:xlink="http://www.w3.org/1999/xlink" x="0px" y="0px"
	 width="1000px" height="1000px" viewBox="0 0 1000 1000" enable-background="new 0 0 1000 1000" xml:space="preserve">
<g id="XMLID_2929_">
	<path id="XMLID_140_" fill="#DDDDDD" d="M500.009,499.982C500.009,223.854,723.854-0.009,1000-0.009H0l0,0
		c276.128,0.036,499.964,223.862,499.964,499.991c0,276.146-223.836,500.009-499.964,500.026l0,0h1000
		C723.854,1000.009,500.009,776.146,500.009,499.982z"/>
	<path id="XMLID_133_" fill="#FFFFFF" d="M499.964,499.982C499.964,223.854,276.128,0.027,0-0.009v1000.018
		C276.128,999.991,499.964,776.128,499.964,499.982z"/>
	<path id="XMLID_128_" fill="#FF5000" d="M500.009,499.982c0,276.164,223.845,500.026,499.991,500.026V-0.009
		C723.854-0.009,500.009,223.854,500.009,499.982z"/>
</g>
</svg>
