<?xml version="1.0" encoding="utf-8"?>
<!-- Generator: Adobe Illustrator 16.0.0, SVG Export Plug-In . SVG Version: 6.00 Build 0)  -->
<!DOCTYPE svg PUBLIC "-//W3C//DTD SVG 1.1//EN" "http://www.w3.org/Graphics/SVG/1.1/DTD/svg11.dtd">
<svg version="1.1" id="Layer_1" xmlns="http://www.w3.org/2000/svg" xmlns:xlink="http://www.w3.org/1999/xlink" x="0px" y="0px"
	 width="1000px" height="1000px" viewBox="0 0 1000 1000" enable-background="new 0 0 1000 1000" xml:space="preserve">
<g id="XMLID_5971_">
	<rect id="XMLID_2772_" x="0.636" y="0.965" fill="#FFFFFF" width="998.701" height="998.738"/>
	<g id="XMLID_5972_">
		<polygon id="XMLID_5976_" fill="#FF5000" points="909.716,0.297 874.646,0.297 0.5,0.297 0.5,125.159 874.646,125.159 
			874.646,998.98 999.5,998.98 999.5,0.297 		"/>
		<polygon id="XMLID_5975_" fill="#FF5000" points="680.684,249.985 624.984,249.985 0.5,249.985 0.5,374.812 624.984,374.812 
			624.984,998.98 749.811,998.98 749.811,249.985 		"/>
		<polygon id="XMLID_5974_" fill="#FF5000" points="455.08,499.656 392.677,499.656 0.5,499.656 0.5,624.465 392.677,624.465 
			392.677,998.98 517.512,998.98 517.512,499.656 		"/>
		<polygon id="XMLID_5973_" fill="#FF5000" points="227.79,749.328 142.996,749.328 0.5,749.328 0.5,874.172 142.996,874.172 
			142.996,998.98 267.85,998.98 267.85,749.328 		"/>
	</g>
</g>
</svg>
