<?xml version="1.0" encoding="utf-8"?>
<!-- Generator: Adobe Illustrator 16.0.0, SVG Export Plug-In . SVG Version: 6.00 Build 0)  -->
<!DOCTYPE svg PUBLIC "-//W3C//DTD SVG 1.1//EN" "http://www.w3.org/Graphics/SVG/1.1/DTD/svg11.dtd">
<svg version="1.1" id="Layer_1" xmlns="http://www.w3.org/2000/svg" xmlns:xlink="http://www.w3.org/1999/xlink" x="0px" y="0px"
	 width="1000px" height="1000px" viewBox="0 0 1000 1000" enable-background="new 0 0 1000 1000" xml:space="preserve">
<g id="XMLID_5961_">
	<rect id="XMLID_2771_" y="0.009" fill="#FFFFFF" width="1000" height="999.982"/>
	<path id="XMLID_5967_" d="M749.616,250.384C749.616,388.259,861.357,500,999.223,500c0.271,0,0.515-0.018,0.777-0.018V0.805
		c-0.262-0.019-0.506-0.036-0.777-0.036C861.357,0.769,749.616,112.527,749.616,250.384z"/>
	<path id="XMLID_5966_" d="M250.402,250.384C250.402,388.259,362.144,500,500.009,500c137.848,0,249.607-111.741,249.607-249.616
		c0-137.856-111.76-249.615-249.607-249.615C362.144,0.769,250.402,112.527,250.402,250.384z"/>
	<path id="XMLID_5965_" d="M250.402,250.384c0-137.856-111.76-249.615-249.625-249.615C0.533,0.769,0.262,0.786,0,0.805v499.178
		c0.262,0,0.533,0.018,0.777,0.018C138.643,500,250.402,388.259,250.402,250.384z"/>
	<path id="XMLID_5964_" d="M749.616,750.375c0,137.856,111.741,249.616,249.606,249.616c0.271,0,0.515-0.019,0.777-0.019V500.777
		c-0.262,0-0.506,0-0.777,0C861.357,500.777,749.616,612.537,749.616,750.375z"/>
	<path id="XMLID_5963_" d="M500.009,500.777c-137.865,0-249.606,111.76-249.606,249.598c0,137.856,111.741,249.616,249.606,249.616
		c137.848,0,249.607-111.76,249.607-249.616C749.616,612.537,637.856,500.777,500.009,500.777z"/>
	<path id="XMLID_5962_" d="M250.402,750.375c0-137.838-111.76-249.598-249.625-249.598c-0.244,0-0.515,0-0.777,0v499.195
		c0.262,0,0.533,0.019,0.777,0.019C138.643,999.991,250.402,888.231,250.402,750.375z"/>
</g>
</svg>
